<?xml version="1.0" encoding="UTF-8"?>
<svg id="Layer_1" data-name="Layer 1" xmlns="http://www.w3.org/2000/svg" xmlns:xlink="http://www.w3.org/1999/xlink" viewBox="0 0 1366 768">
  <defs>
    <style>
      .cls-1 {
        filter: url(#drop-shadow-2);
      }

      .cls-2 {
        fill: #f4ffe8;
      }

      .cls-3 {
        filter: url(#drop-shadow-4);
      }

      .cls-3, .cls-4, .cls-5 {
        fill: #3c0366;
      }

      .cls-4 {
        filter: url(#drop-shadow-5);
      }

      .cls-6 {
        filter: url(#drop-shadow-1);
      }

      .cls-7 {
        filter: url(#drop-shadow-3);
      }

      .cls-8 {
        fill: #51544d;
      }

      .cls-9 {
        fill: url(#linear-gradient);
      }
    </style>
    <linearGradient id="linear-gradient" x1="0" y1="384" x2="1366" y2="384" gradientUnits="userSpaceOnUse">
      <stop offset="0" stop-color="#dbd1e6"/>
      <stop offset="1" stop-color="#f3e8ff"/>
    </linearGradient>
    <filter id="drop-shadow-1" x="321.54" y="287.43" width="733.46" height="203.57" filterUnits="userSpaceOnUse">
      <feOffset dx="7" dy="7"/>
      <feGaussianBlur result="blur" stdDeviation="1"/>
      <feFlood flood-color="#c3bccc" flood-opacity=".75"/>
      <feComposite in2="blur" operator="in"/>
      <feComposite in="SourceGraphic"/>
    </filter>
    <filter id="drop-shadow-2" x="536.42" y="318.78" width="73.58" height="79.22" filterUnits="userSpaceOnUse">
      <feOffset dx="7" dy="7"/>
      <feGaussianBlur result="blur-2" stdDeviation="1"/>
      <feFlood flood-color="#c3bccc" flood-opacity=".75"/>
      <feComposite in2="blur-2" operator="in"/>
      <feComposite in="SourceGraphic"/>
    </filter>
    <filter id="drop-shadow-3" x="570.14" y="380.74" width="46.86" height="58.26" filterUnits="userSpaceOnUse">
      <feOffset dx="7" dy="7"/>
      <feGaussianBlur result="blur-3" stdDeviation="1"/>
      <feFlood flood-color="#c3bccc" flood-opacity=".75"/>
      <feComposite in2="blur-3" operator="in"/>
      <feComposite in="SourceGraphic"/>
    </filter>
    <filter id="drop-shadow-4" x="605.5" y="308.15" width="48.5" height="64.85" filterUnits="userSpaceOnUse">
      <feOffset dx="7" dy="7"/>
      <feGaussianBlur result="blur-4" stdDeviation="1"/>
      <feFlood flood-color="#c3bccc" flood-opacity=".75"/>
      <feComposite in2="blur-4" operator="in"/>
      <feComposite in="SourceGraphic"/>
    </filter>
    <filter id="drop-shadow-5" x="646.83" y="308.15" width="62.17" height="65.85" filterUnits="userSpaceOnUse">
      <feOffset dx="7" dy="7"/>
      <feGaussianBlur result="blur-5" stdDeviation="1"/>
      <feFlood flood-color="#c3bccc" flood-opacity=".75"/>
      <feComposite in2="blur-5" operator="in"/>
      <feComposite in="SourceGraphic"/>
    </filter>
  </defs>
  <rect class="cls-9" width="1366" height="768"/>
  <g class="cls-6">
    <path class="cls-5" d="M357.23,362.9h-18.77v-54.07h-16.92v-15.36h52.61v15.36h-16.92v54.07Z"/>
    <path class="cls-5" d="M400.41,308.15c5.25,0,9.77.91,13.57,2.72,3.79,1.82,6.71,4.54,8.75,8.17,2.04,3.63,3.06,8.2,3.06,13.71v8.27h-33.16c.13,2.79,1.18,5.09,3.16,6.9,1.98,1.82,4.85,2.72,8.61,2.72,3.37,0,6.45-.32,9.24-.97,2.79-.65,5.67-1.69,8.65-3.11v13.32c-2.59,1.36-5.43,2.37-8.51,3.01-3.08.65-6.95.97-11.62.97-5.45,0-10.29-.96-14.54-2.87-4.25-1.91-7.6-4.91-10.06-9-2.46-4.08-3.7-9.3-3.7-15.66s1.12-11.8,3.35-15.95c2.24-4.15,5.35-7.23,9.34-9.24,3.99-2.01,8.61-3.01,13.86-3.01ZM401.09,320.79c-2.21,0-4.04.68-5.49,2.04-1.46,1.36-2.32,3.53-2.58,6.52h15.95c0-1.62-.31-3.06-.92-4.33-.62-1.26-1.51-2.29-2.67-3.06s-2.59-1.17-4.28-1.17Z"/>
    <path class="cls-5" d="M445.72,335.47l-16.43-26.35h21.1l8.17,15.07,8.36-15.07h21.1l-16.82,26.35,17.5,27.42h-21.1l-9.04-16.34-9.04,16.34h-21.1l17.31-27.42Z"/>
    <path class="cls-5" d="M521.96,349.19c1.69,0,3.22-.18,4.62-.54,1.39-.36,2.84-.79,4.33-1.31v13.52c-2.01.84-4.15,1.56-6.42,2.14-2.27.58-5.15.88-8.65.88s-6.56-.55-9.19-1.65c-2.62-1.1-4.68-3-6.17-5.69-1.49-2.69-2.24-6.47-2.24-11.33v-22.17h-6.52v-7.59l8.27-5.83,4.77-11.28h12.16v10.79h13.23v13.91h-13.23v20.91c0,1.75.44,3.06,1.31,3.94.88.88,2.12,1.31,3.74,1.31Z"/>
    <path class="cls-5" d="M754.09,362.9h-18.48v-69.43h41.04v15.07h-22.56v13.23h20.81v15.07h-20.81v26.06Z"/>
    <path class="cls-5" d="M796.39,287.43c2.66,0,4.97.55,6.95,1.65,1.98,1.1,2.97,3.31,2.97,6.61s-.99,5.33-2.97,6.47c-1.98,1.14-4.29,1.7-6.95,1.7s-5.04-.57-6.95-1.7c-1.91-1.13-2.87-3.29-2.87-6.47s.96-5.51,2.87-6.61c1.91-1.1,4.23-1.65,6.95-1.65ZM805.63,309.12v53.78h-18.57v-53.78h18.57Z"/>
    <path class="cls-5" d="M852.21,308.15c5.57,0,10.11,1.56,13.61,4.67s5.25,8.14,5.25,15.07v35.01h-18.57v-29.37c0-3.56-.52-6.26-1.56-8.07-1.04-1.81-2.69-2.72-4.96-2.72-3.5,0-5.85,1.43-7.05,4.28-1.2,2.85-1.8,6.97-1.8,12.35v23.53h-18.57v-53.78h14l2.53,7.1h.68c1.17-1.69,2.54-3.13,4.13-4.33,1.59-1.2,3.4-2.12,5.45-2.77,2.04-.65,4.33-.97,6.86-.97Z"/>
    <path class="cls-5" d="M900.44,363.87c-5.51,0-10.06-2.37-13.66-7.1-3.6-4.73-5.4-11.64-5.4-20.71s1.83-16.16,5.49-20.86c3.66-4.7,8.41-7.05,14.25-7.05,2.4,0,4.47.34,6.22,1.02,1.75.68,3.27,1.62,4.57,2.82,1.3,1.2,2.4,2.54,3.31,4.04h.39c-.26-1.36-.47-3.24-.63-5.64-.16-2.4-.24-4.73-.24-7v-14.39h18.67v73.91h-14l-3.99-6.81h-.68c-.84,1.43-1.91,2.72-3.21,3.89s-2.85,2.11-4.67,2.82c-1.82.71-3.96,1.07-6.42,1.07ZM908.03,349.19c2.98,0,5.09-.94,6.32-2.82,1.23-1.88,1.88-4.77,1.95-8.65v-1.46c0-4.21-.6-7.45-1.8-9.72-1.2-2.27-3.42-3.4-6.66-3.4-2.2,0-4.04,1.07-5.49,3.21-1.46,2.14-2.19,5.48-2.19,10.02s.73,7.73,2.19,9.77,3.36,3.06,5.69,3.06Z"/>
    <path class="cls-5" d="M970.46,308.15c5.25,0,9.77.91,13.57,2.72,3.79,1.82,6.71,4.54,8.75,8.17,2.04,3.63,3.06,8.2,3.06,13.71v8.27h-33.16c.13,2.79,1.18,5.09,3.16,6.9,1.98,1.82,4.85,2.72,8.61,2.72,3.37,0,6.45-.32,9.24-.97,2.79-.65,5.67-1.69,8.66-3.11v13.32c-2.59,1.36-5.43,2.37-8.51,3.01-3.08.65-6.95.97-11.62.97-5.45,0-10.29-.96-14.54-2.87-4.25-1.91-7.6-4.91-10.07-9-2.46-4.08-3.7-9.3-3.7-15.66s1.12-11.8,3.36-15.95c2.24-4.15,5.35-7.23,9.33-9.24,3.99-2.01,8.61-3.01,13.86-3.01ZM971.14,320.79c-2.2,0-4.04.68-5.49,2.04-1.46,1.36-2.32,3.53-2.58,6.52h15.95c0-1.62-.31-3.06-.92-4.33s-1.51-2.29-2.67-3.06-2.59-1.17-4.28-1.17Z"/>
    <path class="cls-5" d="M1038.82,308.15c1.04,0,2.11.07,3.21.19,1.1.13,1.91.26,2.43.39l-1.65,17.5c-.65-.13-1.44-.26-2.38-.39-.94-.13-2.25-.19-3.94-.19-1.17,0-2.42.11-3.74.34-1.33.23-2.59.7-3.79,1.41-1.2.71-2.17,1.78-2.92,3.21-.75,1.43-1.12,3.37-1.12,5.83v26.45h-18.57v-53.78h13.81l2.92,8.56h.88c.97-1.75,2.24-3.35,3.79-4.81,1.56-1.46,3.29-2.61,5.2-3.45,1.91-.84,3.87-1.26,5.88-1.26Z"/>
    <path class="cls-5" d="M433.67,479.59h-18.48v-69.43h41.04v15.07h-22.56v13.23h20.81v15.07h-20.81v26.06Z"/>
    <path class="cls-5" d="M517.88,452.56c0,4.47-.62,8.46-1.85,11.96-1.23,3.5-3.01,6.44-5.35,8.8-2.33,2.37-5.15,4.17-8.46,5.4-3.31,1.23-7.07,1.85-11.28,1.85-3.89,0-7.47-.62-10.75-1.85-3.27-1.23-6.09-3.03-8.46-5.4-2.37-2.37-4.22-5.3-5.54-8.8-1.33-3.5-1.99-7.49-1.99-11.96,0-5.96,1.08-11,3.26-15.12,2.17-4.12,5.27-7.25,9.29-9.38,4.02-2.14,8.85-3.21,14.49-3.21,5.19,0,9.77,1.07,13.76,3.21,3.99,2.14,7.13,5.27,9.43,9.38,2.3,4.12,3.45,9.16,3.45,15.12ZM483.07,452.56c0,3.05.26,5.64.78,7.78.52,2.14,1.38,3.74,2.58,4.81,1.2,1.07,2.77,1.6,4.72,1.6s3.48-.53,4.62-1.6c1.13-1.07,1.96-2.67,2.48-4.81.52-2.14.78-4.73.78-7.78s-.26-5.61-.78-7.68c-.52-2.07-1.36-3.63-2.53-4.67-1.17-1.04-2.72-1.56-4.67-1.56-2.79,0-4.81,1.17-6.08,3.5-1.26,2.33-1.9,5.8-1.9,10.41Z"/>
    <path class="cls-5" d="M560.96,424.84c1.04,0,2.11.07,3.21.2,1.1.13,1.91.26,2.43.39l-1.65,17.5c-.65-.13-1.44-.26-2.38-.39-.94-.13-2.25-.19-3.94-.19-1.17,0-2.42.11-3.74.34-1.33.23-2.59.7-3.79,1.41-1.2.71-2.17,1.78-2.92,3.21-.75,1.43-1.12,3.37-1.12,5.83v26.45h-18.57v-53.78h13.81l2.92,8.56h.88c.97-1.75,2.24-3.35,3.79-4.81s3.29-2.61,5.2-3.45c1.91-.84,3.87-1.26,5.88-1.26Z"/>
    <path class="cls-5" d="M685.24,479.59h-18.87v-28.3h-21.78v28.3h-18.87v-69.43h18.87v25.77h21.78v-25.77h18.87v69.43Z"/>
    <path class="cls-5" d="M744.27,480.57c-3.31,0-6.06-.67-8.27-1.99-2.2-1.33-3.97-3.05-5.3-5.15-1.33-2.11-2.45-4.33-3.35-6.66l-3.31-9.04c-.39-.97-.71-1.9-.97-2.77-.26-.88-.47-1.7-.63-2.48-.16-.78-.31-1.49-.44-2.14-.13-.65-.26-1.23-.39-1.75h-.39c-.26,1.56-.63,3.18-1.12,4.86-.49,1.69-.89,3.08-1.22,4.18l-6.9,21.98h-19.25l21.2-50.28-.58-1.46c-1.1-2.79-2.48-4.8-4.13-6.03-1.65-1.23-3.68-1.85-6.08-1.85-.45,0-1.21.03-2.29.1-1.07.07-2.12.23-3.16.49v-14.59c.58-.13,1.42-.26,2.53-.39,1.1-.13,2.22-.23,3.35-.29,1.13-.06,2.03-.1,2.67-.1,4.41,0,8.1.62,11.09,1.85,2.98,1.23,5.53,3.29,7.63,6.18,2.11,2.88,4.04,6.76,5.79,11.62l10.89,30.44c1.17,3.24,2.22,5.62,3.16,7.15.94,1.52,1.9,2.5,2.87,2.92.97.42,2.07.63,3.31.63.52,0,1.07-.03,1.65-.1.58-.06,1.23-.19,1.95-.39v13.42c-.52.26-1.44.52-2.77.78-1.33.26-2.71.47-4.13.63-1.43.16-2.56.24-3.4.24Z"/>
    <path class="cls-5" d="M779.57,479.59h-18.57v-73.91h18.57v73.91Z"/>
    <path class="cls-5" d="M825.27,439.72h-11.47v39.87h-18.57v-39.87h-7.1v-9.14l7.49-4.57v-.88c0-4.67.62-8.46,1.85-11.38,1.23-2.92,3.19-5.07,5.88-6.47,2.69-1.39,6.21-2.09,10.55-2.09,2.79,0,5.32.21,7.58.63,2.27.42,4.63,1.05,7.1,1.9l-3.99,12.06c-.91-.26-1.93-.49-3.06-.68-1.13-.19-2.35-.29-3.65-.29-1.43,0-2.46.44-3.11,1.31-.65.88-.97,2.29-.97,4.23v1.46h11.47v13.91Z"/>
    <path class="cls-5" d="M828.19,460.92v-14.78h26.84v14.78h-26.84Z"/>
    <path class="cls-5" d="M864.56,479.59v-69.43h18.77v54.26h26.74v15.17h-45.51Z"/>
    <path class="cls-5" d="M929.52,404.13c2.66,0,4.97.55,6.95,1.65,1.98,1.1,2.97,3.31,2.97,6.61s-.99,5.33-2.97,6.47c-1.98,1.14-4.29,1.7-6.95,1.7s-5.04-.57-6.95-1.7c-1.91-1.13-2.87-3.29-2.87-6.47s.96-5.51,2.87-6.61c1.91-1.1,4.23-1.65,6.95-1.65ZM938.75,425.82v53.78h-18.57v-53.78h18.57Z"/>
    <path class="cls-5" d="M984.56,439.72h-11.47v39.87h-18.57v-39.87h-7.1v-9.14l7.49-4.57v-.88c0-4.67.62-8.46,1.85-11.38,1.23-2.92,3.19-5.07,5.88-6.47,2.69-1.39,6.21-2.09,10.55-2.09,2.79,0,5.32.21,7.58.63,2.27.42,4.63,1.05,7.1,1.9l-3.99,12.06c-.91-.26-1.93-.49-3.06-.68-1.13-.19-2.35-.29-3.65-.29-1.43,0-2.46.44-3.11,1.31-.65.88-.97,2.29-.97,4.23v1.46h11.47v13.91Z"/>
    <path class="cls-5" d="M1016.06,424.84c5.25,0,9.77.91,13.57,2.72,3.79,1.82,6.71,4.54,8.75,8.17,2.04,3.63,3.06,8.2,3.06,13.71v8.27h-33.16c.13,2.79,1.18,5.09,3.16,6.91,1.98,1.82,4.85,2.72,8.61,2.72,3.37,0,6.45-.32,9.24-.97,2.79-.65,5.67-1.68,8.66-3.11v13.32c-2.59,1.36-5.43,2.37-8.51,3.01-3.08.65-6.95.97-11.62.97-5.45,0-10.29-.96-14.54-2.87-4.25-1.91-7.6-4.91-10.07-9-2.46-4.08-3.7-9.3-3.7-15.66s1.12-11.8,3.36-15.95c2.24-4.15,5.35-7.23,9.33-9.24,3.99-2.01,8.61-3.01,13.86-3.01ZM1016.74,437.49c-2.2,0-4.04.68-5.49,2.04s-2.32,3.53-2.58,6.52h15.95c0-1.62-.31-3.06-.92-4.33-.62-1.26-1.51-2.29-2.67-3.06-1.17-.78-2.59-1.17-4.28-1.17Z"/>
  </g>
  <g class="cls-1">
    <path class="cls-5" d="M599.54,337l-18.69,50.42-13.13-4.87.14-7.1-1-.37c-1.67,1.32-3.5,2.21-5.51,2.68s-4.05.59-6.15.36-4.18-.72-6.24-1.48c-3.28-1.22-6.03-2.96-8.23-5.23-2.2-2.27-3.57-5.06-4.11-8.37-.54-3.31,0-7.12,1.6-11.44l12.17-32.83,17.42,6.46-10.21,27.54c-1.22,3.28-1.67,5.95-1.36,8,.31,2.05,1.53,3.47,3.66,4.26,2.19.81,4.11.85,5.77.11,1.65-.73,3.14-2.17,4.45-4.31,1.31-2.14,2.59-4.88,3.83-8.23l8.18-22.07,17.42,6.46Z"/>
  </g>
  <g class="cls-7">
    <path class="cls-8" d="M598.82,389.33l-28.66,6.97c-.06.54-.01,1.1.12,1.64l6.38,26.21c.67,2.76,3.46,4.44,6.2,3.78l19.24-4.68c2.76-.67,4.45-3.45,3.78-6.2l-6.35-26.12c-.14-.57-.38-1.12-.7-1.6ZM602.22,416.49c.39,1.62-.6,3.26-2.22,3.66l-16.69,4.06c-1.62.39-3.26-.61-3.65-2.23l-4.82-19.82c-.4-1.63.61-3.27,2.23-3.66l16.71-4.01c1.62-.39,3.25.61,3.64,2.23l4.81,19.76Z"/>
    <path class="cls-8" d="M579.13,389.53c-.58-2.39.89-4.8,3.28-5.38s4.79.88,5.38,3.27-.88,4.8-3.27,5.38l14.31-3.48c-.41-.63-.96-1.17-1.62-1.57l-9.62-5.86c-3.75-2.29-8.63-1.1-10.91,2.65l-5.79,9.49c-.42.69-.67,1.46-.72,2.25l14.35-3.49c-2.39.58-4.81-.89-5.39-3.28Z"/>
    <path class="cls-2" d="M597.42,396.73l4.81,19.76c.39,1.62-.6,3.26-2.22,3.66l-16.69,4.06c-1.62.39-3.26-.61-3.65-2.23l-4.82-19.82c-.4-1.63.61-3.27,2.23-3.66l16.71-4.01c1.62-.39,3.25.61,3.64,2.23Z"/>
  </g>
  <path class="cls-3" d="M637.98,308.15c1.04,0,2.11.07,3.21.19,1.1.13,1.91.26,2.43.39l-1.65,17.5c-.65-.13-1.44-.26-2.38-.39-.94-.13-2.25-.19-3.94-.19-1.17,0-2.42.11-3.74.34-1.33.23-2.59.7-3.79,1.41-1.2.71-2.17,1.78-2.92,3.21-.75,1.43-1.12,3.37-1.12,5.83v26.45h-18.57v-53.78h13.81l2.92,8.56h.88c.97-1.75,2.24-3.35,3.79-4.81,1.56-1.46,3.29-2.61,5.2-3.45,1.91-.84,3.87-1.26,5.88-1.26Z"/>
  <path class="cls-4" d="M673.37,308.15c5.25,0,9.77.91,13.57,2.72,3.79,1.82,6.71,4.54,8.75,8.17,2.04,3.63,3.06,8.2,3.06,13.71v8.27h-33.16c.13,2.79,1.18,5.09,3.16,6.9,1.98,1.82,4.85,2.72,8.61,2.72,3.37,0,6.45-.32,9.24-.97,2.79-.65,5.67-1.69,8.66-3.11v13.32c-2.59,1.36-5.43,2.37-8.51,3.01-3.08.65-6.95.97-11.62.97-5.45,0-10.29-.96-14.54-2.87-4.25-1.91-7.6-4.91-10.07-9-2.46-4.08-3.7-9.3-3.7-15.66s1.12-11.8,3.36-15.95c2.24-4.15,5.35-7.23,9.33-9.24,3.99-2.01,8.61-3.01,13.86-3.01ZM674.05,320.79c-2.2,0-4.04.68-5.49,2.04-1.46,1.36-2.32,3.53-2.58,6.52h15.95c0-1.62-.31-3.06-.92-4.33s-1.51-2.29-2.67-3.06-2.59-1.17-4.28-1.17Z"/>
</svg>