<?xml version="1.0" encoding="UTF-8"?>
<svg id="Layer_1" data-name="Layer 1" xmlns="http://www.w3.org/2000/svg" xmlns:xlink="http://www.w3.org/1999/xlink" viewBox="0 0 160 160">
  <defs>
    <style>
      .cls-1 {
        filter: url(#drop-shadow-1);
      }

      .cls-2 {
        fill: #3c0366;
      }

      .cls-3 {
        fill: url(#linear-gradient);
      }
    </style>
    <linearGradient id="linear-gradient" x1="0" y1="80" x2="160" y2="80" gradientUnits="userSpaceOnUse">
      <stop offset="0" stop-color="#dbd1e6"/>
      <stop offset="1" stop-color="#f3e8ff"/>
    </linearGradient>
    <filter id="drop-shadow-1" x="37.72" y="34.01" width="95.28" height="102.65" filterUnits="userSpaceOnUse">
      <feOffset dx="7" dy="7"/>
      <feGaussianBlur result="blur" stdDeviation="1"/>
      <feFlood flood-color="#c3bccc" flood-opacity=".75"/>
      <feComposite in2="blur" operator="in"/>
      <feComposite in="SourceGraphic"/>
    </filter>
  </defs>
  <rect class="cls-3" width="160" height="160"/>
  <g class="cls-1">
    <path class="cls-2" d="M122.28,58.43l-25.05,67.56-17.59-6.52.19-9.52-1.34-.5c-2.23,1.77-4.69,2.96-7.38,3.59s-5.43.79-8.24.49c-2.81-.3-5.6-.96-8.36-1.99-4.4-1.63-8.07-3.97-11.02-7-2.95-3.04-4.78-6.78-5.5-11.21-.72-4.44,0-9.54,2.14-15.33l16.31-43.98,23.33,8.65-13.68,36.9c-1.63,4.4-2.24,7.97-1.82,10.72.42,2.75,2.05,4.65,4.9,5.71,2.93,1.09,5.51,1.14,7.73.15,2.22-.98,4.21-2.91,5.96-5.78,1.76-2.87,3.47-6.54,5.13-11.02l10.96-29.56,23.33,8.65Z"/>
  </g>
</svg>